<svg xmlns="http://www.w3.org/2000/svg" version="1.1" xmlns:xlink="http://www.w3.org/1999/xlink" xmlns:svgjs="http://svgjs.dev/svgjs" width="2000" height="1500" viewBox="0 0 2000 1500"><rect width="2000" height="1500" fill="#000000"></rect><g transform="matrix(0.75,0,0,0.75,249.090909090909,282.7536437246964)"><svg viewBox="0 0 396 247" data-background-color="#000000" preserveAspectRatio="xMidYMid meet" height="1247" width="2000" xmlns="http://www.w3.org/2000/svg" xmlns:xlink="http://www.w3.org/1999/xlink"><g id="tight-bounds" transform="matrix(1,0,0,1,0.2400000000000091,-0.09999999999999432)"><svg viewBox="0 0 395.52 247.2" height="247.2" width="395.52"><rect width="395.52" height="247.20000000000002" fill="#ffffff" mask="url(#8c05ea6b-a578-481d-966e-21c1a101ad6f)" data-fill-palette-color="tertiary"></rect><g><svg></svg></g><g><svg viewBox="0 0 395.52 247.2" height="247.2" width="395.52"><mask id="9c7cad63-2094-49b3-bca9-cb67231899ac"><rect width="395.52" height="247.2" fill="white"></rect><g transform="matrix(1,0,0,1,0,70.03274392391685)" id="clone"><svg viewBox="0 0 395.52 107.13451215216627" height="107.13451215216627" width="395.52"><g><svg viewBox="0 0 395.52 107.13451215216627" height="107.13451215216627" width="395.52"><g><svg viewBox="0 0 395.52 107.13451215216627" height="107.13451215216627" width="395.52"><g><svg viewBox="0 0 395.52 107.13451215216627" height="107.13451215216627" width="395.52"><g id="SvgjsG1622"><svg viewBox="0 0 395.52 107.13451215216627" height="107.13451215216627" width="395.52" id="SvgjsSvg1621"><g><svg viewBox="0 0 395.52 107.13451215216627" height="107.13451215216627" width="395.52"><g transform="matrix(1,0,0,1,0,0)"><svg width="395.52" viewBox="-1.35 -36.25 142.94 39.45" height="107.13451215216627" data-palette-color="#318beb"><path d="M12.45 0L1.65 0 1.65-0.8 4.85-2.45 17.65-33.25 19.9-33.25 32.5-2.6 35.85-0.8 35.85 0 23.45 0 23.45-0.8 27.85-2.5 24.1-11.75 11.95-11.75 8.25-2.5 12.45-0.8 12.45 0ZM18.05-26.8L13.1-14.5 23-14.5 18.05-26.8ZM51.1 0L40.5 0 40.5-0.8 44.05-2.45 44.05-25.6 40.5-27.2 40.5-28 47.5-28 64.45-7.45 64.45-25.6 60.2-27.2 60.2-28 70.7-28 70.7-27.2 67.2-25.6 67.2 0.2 65.25 0.2 46.8-22 46.8-2.6 51.1-0.8 51.1 0ZM88.7 0L76.95 0 76.95-0.8 80.55-2.45 80.55-25.55 76.95-27.2 76.95-28 89-28Q94-28 97.47-26.4 100.95-24.8 102.77-21.93 104.6-19.05 104.6-15.25L104.6-15.25Q104.6-10.6 102.7-7.18 100.8-3.75 97.22-1.88 93.65 0 88.7 0L88.7 0ZM88.35-25.5L88.35-25.5 84.8-25.5 84.8-2.5 88.65-2.5Q94.25-2.5 97.22-5.7 100.2-8.9 100.2-14.15L100.2-14.15Q100.2-19.7 97.15-22.6 94.1-25.5 88.35-25.5ZM130.39 0L118.34 0 118.34-0.8 122.24-2.45 122.24-13.35 113.09-25.7 109.84-27.2 109.84-28 121.09-28 121.09-27.2 118.09-25.7 118.09-25.5 125.34-15.85 131.94-25.45 131.94-25.6 128.79-27.2 128.79-28 138.59-28 138.59-27.2 135.29-25.65 126.49-13.15 126.49-2.45 130.39-0.8 130.39 0Z" opacity="1" transform="matrix(1,0,0,1,0,0)" fill="black" class="wordmark-text-0" id="SvgjsPath1620" stroke-width="5" stroke="black" stroke-linejoin="round"></path></svg></g></svg></g></svg></g></svg></g></svg></g></svg></g></svg></g></mask><g mask="url(#9c7cad63-2094-49b3-bca9-cb67231899ac)"><g><path d="M150.922 247.2h-80.293v-5.948l23.79-12.267 95.163-228.985h16.728l93.676 227.87 24.905 13.382v5.948h-92.188v-5.948l32.712-12.638-27.88-68.77h-90.33l-27.508 68.77 31.225 12.638zM192.556 47.953l-36.801 91.445h73.602z" fill="#ffffff" fill-rule="nonzero" stroke="none" stroke-width="1" stroke-linecap="butt" stroke-linejoin="miter" stroke-miterlimit="10" stroke-dasharray="" stroke-dashoffset="0" font-family="none" font-weight="none" font-size="none" text-anchor="none" style="mix-blend-mode: normal" data-fill-palette-color="tertiary"></path></g></g><g transform="matrix(1,0,0,1,0,70.03274392391685)"><svg viewBox="0 0 395.52 107.13451215216627" height="107.13451215216627" width="395.52"><g><svg viewBox="0 0 395.52 107.13451215216627" height="107.13451215216627" width="395.52"><g><svg viewBox="0 0 395.52 107.13451215216627" height="107.13451215216627" width="395.52"><g><svg viewBox="0 0 395.52 107.13451215216627" height="107.13451215216627" width="395.52"><g id="textblocktransform"><svg viewBox="0 0 395.52 107.13451215216627" height="107.13451215216627" width="395.52" id="textblock"><g><svg viewBox="0 0 395.52 107.13451215216627" height="107.13451215216627" width="395.52"><g transform="matrix(1,0,0,1,0,0)"><svg width="395.52" viewBox="-1.35 -36.25 142.94 39.45" height="107.13451215216627" data-palette-color="#318beb"><path d="M12.45 0L1.65 0 1.65-0.8 4.85-2.45 17.65-33.25 19.9-33.25 32.5-2.6 35.85-0.8 35.85 0 23.45 0 23.45-0.8 27.85-2.5 24.1-11.75 11.95-11.75 8.25-2.5 12.45-0.8 12.45 0ZM18.05-26.8L13.1-14.5 23-14.5 18.05-26.8ZM51.1 0L40.5 0 40.5-0.8 44.05-2.45 44.05-25.6 40.5-27.2 40.5-28 47.5-28 64.45-7.45 64.45-25.6 60.2-27.2 60.2-28 70.7-28 70.7-27.2 67.2-25.6 67.2 0.2 65.25 0.2 46.8-22 46.8-2.6 51.1-0.8 51.1 0ZM88.7 0L76.95 0 76.95-0.8 80.55-2.45 80.55-25.55 76.95-27.2 76.95-28 89-28Q94-28 97.47-26.4 100.95-24.8 102.77-21.93 104.6-19.05 104.6-15.25L104.6-15.25Q104.6-10.6 102.7-7.18 100.8-3.75 97.22-1.88 93.65 0 88.7 0L88.7 0ZM88.35-25.5L88.35-25.5 84.8-25.5 84.8-2.5 88.65-2.5Q94.25-2.5 97.22-5.7 100.2-8.9 100.2-14.15L100.2-14.15Q100.2-19.7 97.15-22.6 94.1-25.5 88.35-25.5ZM130.39 0L118.34 0 118.34-0.8 122.24-2.45 122.24-13.35 113.09-25.7 109.84-27.2 109.84-28 121.09-28 121.09-27.2 118.09-25.7 118.09-25.5 125.34-15.85 131.94-25.45 131.94-25.6 128.79-27.2 128.79-28 138.59-28 138.59-27.2 135.29-25.65 126.49-13.15 126.49-2.45 130.39-0.8 130.39 0Z" opacity="1" transform="matrix(1,0,0,1,0,0)" fill="#ffffff" class="wordmark-text-0" data-fill-palette-color="primary" id="text-0"></path></svg></g></svg></g></svg></g></svg></g></svg></g></svg></g></svg></g></svg></g><defs></defs><mask id="8c05ea6b-a578-481d-966e-21c1a101ad6f"><g id="SvgjsG1652"><svg viewBox="0 0 395.52 247.2" height="247.2" width="395.52"><g><svg></svg></g><g><svg viewBox="0 0 395.52 247.2" height="247.2" width="395.52"><mask id="SvgjsMask1651"><rect width="395.52" height="247.2" fill="black"></rect><g transform="matrix(1,0,0,1,0,70.03274392391685)" id="SvgjsG1650"><svg viewBox="0 0 395.52 107.13451215216627" height="107.13451215216627" width="395.52"><g><svg viewBox="0 0 395.52 107.13451215216627" height="107.13451215216627" width="395.52"><g><svg viewBox="0 0 395.52 107.13451215216627" height="107.13451215216627" width="395.52"><g><svg viewBox="0 0 395.52 107.13451215216627" height="107.13451215216627" width="395.52"><g id="SvgjsG1649"><svg viewBox="0 0 395.52 107.13451215216627" height="107.13451215216627" width="395.52" id="SvgjsSvg1648"><g><svg viewBox="0 0 395.52 107.13451215216627" height="107.13451215216627" width="395.52"><g transform="matrix(1,0,0,1,0,0)"><svg width="395.52" viewBox="-1.35 -36.25 142.94 39.45" height="107.13451215216627" data-palette-color="#318beb"><path d="M12.45 0L1.65 0 1.65-0.8 4.85-2.45 17.65-33.25 19.9-33.25 32.5-2.6 35.85-0.8 35.85 0 23.45 0 23.45-0.8 27.85-2.5 24.1-11.75 11.95-11.75 8.25-2.5 12.45-0.8 12.45 0ZM18.05-26.8L13.1-14.5 23-14.5 18.05-26.8ZM51.1 0L40.5 0 40.5-0.8 44.05-2.45 44.05-25.6 40.5-27.2 40.5-28 47.5-28 64.45-7.45 64.45-25.6 60.2-27.2 60.2-28 70.7-28 70.7-27.2 67.2-25.6 67.2 0.2 65.25 0.2 46.8-22 46.8-2.6 51.1-0.8 51.1 0ZM88.7 0L76.95 0 76.95-0.8 80.55-2.45 80.55-25.55 76.95-27.2 76.95-28 89-28Q94-28 97.47-26.4 100.95-24.8 102.77-21.93 104.6-19.05 104.6-15.25L104.6-15.25Q104.6-10.6 102.7-7.18 100.8-3.75 97.22-1.88 93.65 0 88.7 0L88.7 0ZM88.35-25.5L88.35-25.5 84.8-25.5 84.8-2.5 88.65-2.5Q94.25-2.5 97.22-5.7 100.2-8.9 100.2-14.15L100.2-14.15Q100.2-19.7 97.15-22.6 94.1-25.5 88.35-25.5ZM130.39 0L118.34 0 118.34-0.8 122.24-2.45 122.24-13.35 113.09-25.7 109.84-27.2 109.84-28 121.09-28 121.09-27.2 118.09-25.7 118.09-25.5 125.34-15.85 131.94-25.45 131.94-25.6 128.79-27.2 128.79-28 138.59-28 138.59-27.2 135.29-25.65 126.49-13.15 126.49-2.45 130.39-0.8 130.39 0Z" opacity="1" transform="matrix(1,0,0,1,0,0)" fill="black" class="wordmark-text-0" id="SvgjsPath1647" stroke-width="5" stroke="black" stroke-linejoin="round"></path></svg></g></svg></g></svg></g></svg></g></svg></g></svg></g></svg></g></mask><g mask="url(#9c7cad63-2094-49b3-bca9-cb67231899ac)"><g><path d="M150.922 247.2h-80.293v-5.948l23.79-12.267 95.163-228.985h16.728l93.676 227.87 24.905 13.382v5.948h-92.188v-5.948l32.712-12.638-27.88-68.77h-90.33l-27.508 68.77 31.225 12.638zM192.556 47.953l-36.801 91.445h73.602z" fill="white" fill-rule="nonzero" stroke="none" stroke-width="1" stroke-linecap="butt" stroke-linejoin="miter" stroke-miterlimit="10" stroke-dasharray="" stroke-dashoffset="0" font-family="none" font-weight="none" font-size="none" text-anchor="none" style="mix-blend-mode: normal"></path></g></g><g transform="matrix(1,0,0,1,0,70.03274392391685)"><svg viewBox="0 0 395.52 107.13451215216627" height="107.13451215216627" width="395.52"><g><svg viewBox="0 0 395.52 107.13451215216627" height="107.13451215216627" width="395.52"><g><svg viewBox="0 0 395.52 107.13451215216627" height="107.13451215216627" width="395.52"><g><svg viewBox="0 0 395.52 107.13451215216627" height="107.13451215216627" width="395.52"><g id="SvgjsG1646"><svg viewBox="0 0 395.52 107.13451215216627" height="107.13451215216627" width="395.52" id="SvgjsSvg1645"><g><svg viewBox="0 0 395.52 107.13451215216627" height="107.13451215216627" width="395.52"><g transform="matrix(1,0,0,1,0,0)"><svg width="395.52" viewBox="-1.35 -36.25 142.94 39.45" height="107.13451215216627" data-palette-color="#318beb"><path d="M12.45 0L1.65 0 1.65-0.8 4.85-2.45 17.65-33.25 19.9-33.25 32.5-2.6 35.85-0.8 35.85 0 23.45 0 23.45-0.8 27.85-2.5 24.1-11.75 11.95-11.75 8.25-2.5 12.45-0.8 12.45 0ZM18.05-26.8L13.1-14.5 23-14.5 18.05-26.8ZM51.1 0L40.5 0 40.5-0.8 44.05-2.45 44.05-25.6 40.5-27.2 40.5-28 47.5-28 64.45-7.45 64.45-25.6 60.2-27.2 60.2-28 70.7-28 70.7-27.2 67.2-25.6 67.2 0.2 65.25 0.2 46.8-22 46.8-2.6 51.1-0.8 51.1 0ZM88.7 0L76.95 0 76.95-0.8 80.55-2.45 80.55-25.55 76.95-27.2 76.95-28 89-28Q94-28 97.47-26.4 100.95-24.8 102.77-21.93 104.6-19.05 104.6-15.25L104.6-15.25Q104.6-10.6 102.7-7.18 100.8-3.75 97.22-1.88 93.65 0 88.7 0L88.7 0ZM88.35-25.5L88.35-25.5 84.8-25.5 84.8-2.5 88.65-2.5Q94.25-2.5 97.22-5.7 100.2-8.9 100.2-14.15L100.2-14.15Q100.2-19.7 97.15-22.6 94.1-25.5 88.35-25.5ZM130.39 0L118.34 0 118.34-0.8 122.24-2.45 122.24-13.35 113.09-25.7 109.84-27.2 109.84-28 121.09-28 121.09-27.2 118.09-25.7 118.09-25.5 125.34-15.85 131.94-25.45 131.94-25.6 128.79-27.2 128.79-28 138.59-28 138.59-27.2 135.29-25.65 126.49-13.15 126.49-2.45 130.39-0.8 130.39 0Z" opacity="1" transform="matrix(1,0,0,1,0,0)" fill="black" class="wordmark-text-0" id="SvgjsPath1644"></path></svg></g></svg></g></svg></g></svg></g></svg></g></svg></g></svg></g></svg></g><defs><mask></mask></defs></svg><rect width="395.52" height="247.2" fill="black" stroke="none" visibility="hidden"></rect></g></mask><linearGradient x1="0" x2="1" y1="0.578" y2="0.595" id="95444c4c-9086-4dfc-8578-5918b534aab9"><stop stop-color="#6ee2f5" offset="0"></stop><stop stop-color="#6454f0" offset="1"></stop></linearGradient></svg><rect width="395.52" height="247.2" fill="none" stroke="none" visibility="hidden"></rect></g></svg></g></svg>